PathFileType	4	(x/y/z)	S06_BK_Cal_T01
DataRate	CameraRate	NumFrames	NumMarkers	Units	OrigDataRate	OrigDataStartFrame	OrigNumFrames
240	240	7	51	mm	240	2521	2880
Frame#	Time	Sternum			R.Acromium			L.Acromium			Top.Head			R.ASIS			L.ASIS			R.PSIS			L.PSIS			R.Great.Tro			L.Great.Tro			R.Iliac.Crest			L.Iliac.Crest			V.Sacral			R.Thigh.Upper.Post			R.Thigh.Lower.Ant			R.Thigh.Lower.Post			R.Thigh.Upper.Ant			R.Knee.Lat			R.Knee.Med			R.Shank.Upper.Post			R.Shank.Lower.Ant			R.Shank.Lower.Post			R.Shank.Upper.Ant			R.Ankle.Lat			R.Ankle.Med			R.Heel.Upper			R.Heel.Med			R.Heel.Lat			R.Toe.Lat			R.Toe.Med			R.Toe.Tip			L.Thigh.Upper.Post			L.Thigh.Lower.Ant			L.Thigh.Lower.Post			L.Thigh.Upper.Ant			L.Knee.Lat			L.Knee.Med			L.Shank.Upper.Post			L.Shank.Lower.Ant			L.Shank.Lower.Post			L.Shank.Upper.Ant			L.Ankle.Lat			L.Ankle.Med			L.Heel.Upper			L.Heel.Med			L.Heel.Lat			L.Toe.Lat			L.Toe.Med			L.Toe.Tip			Cervical.Spine			Back			
		X1	Y1	Z1	X2	Y2	Z2	X3	Y3	Z3	X4	Y4	Z4	X5	Y5	Z5	X6	Y6	Z6	X7	Y7	Z7	X8	Y8	Z8	X9	Y9	Z9	X10	Y10	Z10	X11	Y11	Z11	X12	Y12	Z12	X13	Y13	Z13	X14	Y14	Z14	X15	Y15	Z15	X16	Y16	Z16	X17	Y17	Z17	X18	Y18	Z18	X19	Y19	Z19	X20	Y20	Z20	X21	Y21	Z21	X22	Y22	Z22	X23	Y23	Z23	X24	Y24	Z24	X25	Y25	Z25	X26	Y26	Z26	X27	Y27	Z27	X28	Y28	Z28	X29	Y29	Z29	X30	Y30	Z30	X31	Y31	Z31	X32	Y32	Z32	X33	Y33	Z33	X34	Y34	Z34	X35	Y35	Z35	X36	Y36	Z36	X37	Y37	Z37	X38	Y38	Z38	X39	Y39	Z39	X40	Y40	Z40	X41	Y41	Z41	X42	Y42	Z42	X43	Y43	Z43	X44	Y44	Z44	X45	Y45	Z45	X46	Y46	Z46	X47	Y47	Z47	X48	Y48	Z48	X49	Y49	Z49	X50	Y50	Z50	X51	Y51	Z51	

2521	10.5	716.47	1245.5	321.07	597.31	1474.5	481.42	588.8	1468.4	150.42	651.96	1768.8	318.97	672.07	1009	445.69	675.75	1004	193.93	472.21	1028.8	351.86	472.87	1031.3	271.06	621.01	944.58	497.59	585.34	941.43	134.83	588.2	1086.3	475.8	607.02	1079.4	156.8	458.45	995.23	314.26	698.04	705.33	513.34	777.75	645.36	486.6	715.06	618.06	499.86	760.94	735.25	492.83	762.29	515.18	494.39	769.86	513.06	367.3	649	317.21	506.26	682.88	236.03	484.16	618.45	246.16	495.02	712.13	306.51	495.52	596.95	113.06	474.24	611.35	113.76	386.06	522.53	74.773	428.59	531.65	43.859	397.71	529.25	43.477	463.28	704.59	36.317	507.09	734.49	44.285	387.29	799.61	54.398	436.23	721.66	703.17	114.06	797.3	638.87	162.87	734.31	612.82	122.1	775.73	731.58	154.08	740.08	518.05	129.17	772.28	517.67	246.48	633.57	320.58	125.99	675.06	241.71	126.78	606.36	252.69	139.8	697.89	309.26	119.11	596.55	110.69	134.95	609.19	110	226.44	517.92	71.936	178.5	524.92	45.533	211.01	521.58	46.008	149.08	697.24	47.031	100.21	726.55	44.264	217.37	794.23	58.894	158.83	549.6	1506.1	317.34	480.29	1242.2	317.33
2522	10.504	716.46	1245.5	321.06	597.3	1474.5	481.41	588.78	1468.4	150.41	651.96	1768.8	318.97	672.07	1009	445.69	675.74	1004	193.92	472.21	1028.8	351.86	472.87	1031.3	271.07	621.02	944.58	497.59	585.33	941.43	134.83	588.2	1086.3	475.8	607	1079.4	156.79	458.45	995.23	314.27	698.04	705.33	513.34	777.75	645.36	486.6	715.06	618.06	499.86	760.94	735.25	492.83	762.29	515.18	494.4	769.86	513.05	367.3	649	317.21	506.26	682.88	236.03	484.16	618.45	246.16	495.02	712.13	306.51	495.52	596.95	113.06	474.24	611.35	113.76	386.06	522.53	74.774	428.59	531.65	43.861	397.7	529.25	43.477	463.27	704.59	36.317	507.09	734.49	44.286	387.29	799.61	54.397	436.23	721.65	703.16	114.06	797.3	638.87	162.86	734.3	612.81	122.1	775.72	731.58	154.07	740.08	518.05	129.17	772.28	517.67	246.47	633.57	320.58	125.99	675.06	241.71	126.77	606.36	252.69	139.8	697.89	309.26	119.11	596.55	110.69	134.95	609.19	110	226.44	517.92	71.934	178.5	524.92	45.532	211.01	521.58	46.005	149.08	697.24	47.031	100.21	726.55	44.268	217.37	794.22	58.895	158.83	549.59	1506.1	317.33	480.27	1242.2	317.33
2523	10.508	716.44	1245.5	321.05	597.29	1474.5	481.4	588.76	1468.4	150.4	651.96	1768.8	318.98	672.08	1009	445.69	675.73	1004	193.92	472.2	1028.8	351.87	472.86	1031.3	271.08	621.02	944.58	497.59	585.32	941.43	134.84	588.19	1086.3	475.8	606.97	1079.4	156.79	458.45	995.23	314.28	698.04	705.33	513.35	777.75	645.36	486.61	715.06	618.06	499.86	760.94	735.25	492.83	762.29	515.17	494.4	769.87	513.05	367.31	649	317.21	506.26	682.88	236.02	484.16	618.45	246.16	495.02	712.14	306.51	495.52	596.95	113.06	474.24	611.35	113.76	386.06	522.53	74.774	428.59	531.65	43.863	397.7	529.25	43.477	463.27	704.59	36.316	507.09	734.49	44.286	387.29	799.61	54.397	436.23	721.64	703.16	114.05	797.29	638.87	162.85	734.29	612.81	122.09	775.72	731.58	154.06	740.07	518.05	129.16	772.28	517.67	246.46	633.57	320.58	125.99	675.05	241.71	126.77	606.36	252.69	139.8	697.88	309.26	119.11	596.55	110.69	134.95	609.19	110	226.44	517.92	71.931	178.5	524.92	45.531	211.01	521.58	46.003	149.08	697.24	47.032	100.21	726.55	44.272	217.36	794.22	58.896	158.83	549.58	1506.1	317.32	480.25	1242.2	317.33
2524	10.512	716.42	1245.5	321.04	597.28	1474.5	481.39	588.73	1468.3	150.39	651.96	1768.7	318.98	672.08	1009.1	445.69	675.72	1004	193.91	472.2	1028.8	351.88	472.85	1031.3	271.09	621.03	944.58	497.59	585.31	941.42	134.84	588.18	1086.3	475.81	606.95	1079.4	156.79	458.44	995.22	314.29	698.04	705.33	513.35	777.75	645.35	486.61	715.06	618.06	499.86	760.94	735.25	492.84	762.29	515.17	494.4	769.87	513.05	367.31	649	317.21	506.26	682.88	236.02	484.16	618.45	246.16	495.02	712.14	306.51	495.52	596.95	113.06	474.24	611.35	113.76	386.06	522.53	74.774	428.59	531.65	43.866	397.7	529.25	43.476	463.27	704.59	36.316	507.08	734.49	44.287	387.29	799.61	54.397	436.23	721.63	703.16	114.05	797.28	638.87	162.84	734.28	612.81	122.09	775.71	731.57	154.05	740.07	518.04	129.16	772.28	517.67	246.45	633.56	320.58	125.99	675.05	241.71	126.77	606.36	252.69	139.8	697.88	309.26	119.11	596.55	110.69	134.95	609.19	110	226.43	517.92	71.928	178.5	524.92	45.53	211.01	521.58	46	149.08	697.24	47.032	100.21	726.55	44.276	217.36	794.22	58.897	158.83	549.56	1506.1	317.31	480.23	1242.2	317.34
2525	10.517	716.41	1245.5	321.03	597.27	1474.5	481.38	588.71	1468.3	150.39	651.96	1768.7	318.98	672.08	1009.1	445.69	675.71	1004	193.91	472.19	1028.8	351.88	472.85	1031.3	271.1	621.03	944.58	497.59	585.3	941.42	134.84	588.18	1086.3	475.81	606.92	1079.4	156.79	458.44	995.22	314.3	698.04	705.33	513.35	777.75	645.35	486.61	715.06	618.05	499.87	760.94	735.25	492.84	762.29	515.17	494.4	769.88	513.05	367.31	649.01	317.2	506.26	682.88	236.02	484.16	618.45	246.16	495.02	712.14	306.51	495.52	596.95	113.05	474.24	611.35	113.76	386.06	522.53	74.773	428.59	531.65	43.869	397.7	529.25	43.476	463.27	704.59	36.315	507.08	734.49	44.287	387.29	799.61	54.397	436.23	721.62	703.16	114.05	797.27	638.87	162.83	734.27	612.81	122.09	775.7	731.57	154.04	740.06	518.04	129.16	772.29	517.67	246.45	633.56	320.58	125.99	675.05	241.71	126.77	606.35	252.69	139.8	697.88	309.26	119.11	596.55	110.69	134.95	609.18	110	226.43	517.92	71.924	178.5	524.92	45.529	211.02	521.58	45.997	149.08	697.23	47.032	100.21	726.54	44.281	217.36	794.22	58.898	158.83	549.55	1506.1	317.3	480.21	1242.2	317.34
2526	10.521	716.39	1245.5	321.02	597.26	1474.5	481.37	588.69	1468.3	150.38	651.96	1768.7	318.98	672.08	1009.1	445.69	675.7	1004	193.9	472.19	1028.8	351.89	472.84	1031.3	271.11	621.04	944.58	497.6	585.29	941.41	134.85	588.17	1086.3	475.82	606.9	1079.4	156.79	458.44	995.21	314.31	698.04	705.33	513.35	777.76	645.35	486.62	715.07	618.05	499.87	760.94	735.25	492.84	762.29	515.17	494.4	769.88	513.05	367.31	649.01	317.2	506.26	682.88	236.02	484.15	618.45	246.16	495.02	712.14	306.5	495.52	596.95	113.05	474.24	611.35	113.76	386.07	522.52	74.773	428.59	531.65	43.873	397.7	529.25	43.475	463.27	704.59	36.314	507.08	734.49	44.287	387.29	799.61	54.396	436.23	721.61	703.15	114.04	797.27	638.86	162.82	734.26	612.8	122.09	775.69	731.57	154.03	740.06	518.04	129.16	772.29	517.67	246.44	633.56	320.58	125.99	675.05	241.71	126.77	606.35	252.69	139.8	697.88	309.25	119.11	596.55	110.69	134.95	609.18	110	226.43	517.92	71.919	178.5	524.92	45.527	211.02	521.58	45.994	149.09	697.23	47.032	100.21	726.54	44.285	217.36	794.22	58.899	158.83	549.54	1506	317.29	480.18	1242.2	317.34
2527	10.525	716.37	1245.5	321.01	597.25	1474.5	481.36	588.68	1468.3	150.37	651.95	1768.7	318.98	672.08	1009.1	445.69	675.69	1004	193.9	472.18	1028.8	351.89	472.83	1031.3	271.12	621.04	944.58	497.6	585.27	941.41	134.85	588.16	1086.2	475.82	606.87	1079.4	156.79	458.43	995.21	314.32	698.05	705.33	513.35	777.76	645.35	486.62	715.07	618.05	499.87	760.95	735.25	492.84	762.3	515.17	494.4	769.89	513.04	367.31	649.01	317.2	506.26	682.88	236.02	484.15	618.46	246.15	495.02	712.14	306.5	495.52	596.95	113.05	474.24	611.35	113.76	386.07	522.52	74.773	428.59	531.65	43.877	397.7	529.25	43.474	463.27	704.59	36.313	507.08	734.49	44.287	387.29	799.61	54.396	436.23	721.59	703.15	114.04	797.26	638.86	162.81	734.25	612.8	122.08	775.68	731.57	154.02	740.05	518.04	129.15	772.29	517.67	246.43	633.55	320.58	125.99	675.04	241.71	126.77	606.35	252.69	139.8	697.87	309.25	119.11	596.55	110.69	134.95	609.18	110	226.43	517.92	71.915	178.5	524.92	45.526	211.02	521.57	45.991	149.09	697.23	47.032	100.21	726.54	44.29	217.35	794.22	58.9	158.83	549.53	1506	317.28	480.16	1242.2	317.34
